<svg id="Layer_1" data-name="Layer 1" xmlns="http://www.w3.org/2000/svg" viewBox="0 0 177.35 140.98"><defs><style>.cls-1{fill:#59c3b2;}.cls-2,.cls-5,.cls-7{fill:#fff;}.cls-3{fill:#0e7863;}.cls-4{fill:#1bb497;}.cls-5{font-size:17.3px;font-family:NexaLight;}.cls-6{letter-spacing:-0.04em;}.cls-7{font-size:22.42px;font-family:MyriadPro-Regular, Myriad Pro;}</style></defs><title>logo</title><path class="cls-1" d="M170.49,100A70.49,70.49,0,1,1,100,29.51,70.49,70.49,0,0,1,170.49,100Z" transform="translate(-11.33 -29.51)"/><path class="cls-2" d="M100,166.64A66.64,66.64,0,1,1,166.64,100,66.72,66.72,0,0,1,100,166.64ZM100,35a65,65,0,1,0,65,65A65.05,65.05,0,0,0,100,35Z" transform="translate(-11.33 -29.51)"/><path class="cls-2" d="M100.45,66s-22.46,21.71,0,45.81C100.45,111.81,121,90.24,100.45,66Z" transform="translate(-11.33 -29.51)"/><path class="cls-2" d="M90.55,77.9A44.19,44.19,0,0,0,75.13,65.82S66,97.7,98.24,111.81h0C86.12,98.79,87.09,86.48,90.55,77.9Z" transform="translate(-11.33 -29.51)"/><path class="cls-2" d="M72.37,83.32a41.83,41.83,0,0,0-9.63-1.14s.93,30.73,33.23,29.6C79.8,104.67,74.07,93.08,72.37,83.32Z" transform="translate(-11.33 -29.51)"/><path class="cls-2" d="M109.45,77.9a44.19,44.19,0,0,1,15.42-12.08s9.11,31.88-23.11,46h0C113.88,98.79,112.91,86.48,109.45,77.9Z" transform="translate(-11.33 -29.51)"/><path class="cls-2" d="M127.63,83.32a41.83,41.83,0,0,1,9.63-1.14s-.93,30.73-33.24,29.6C120.2,104.67,125.93,93.08,127.63,83.32Z" transform="translate(-11.33 -29.51)"/><polygon class="cls-1" points="0 100.62 9.93 116.47 0 132.31 54.62 132.31 50.71 130 19.35 117.7 19.35 100.62 0 100.62"/><polygon class="cls-3" points="19.35 124.02 50.71 130 42.74 124.02 19.35 124.02"/><polygon class="cls-1" points="177.35 100.62 167.36 116.47 177.35 132.31 122.37 132.31 126.3 130 157.88 117.7 157.88 100.62 177.35 100.62"/><polygon class="cls-3" points="157.88 124.02 126.3 130 134.33 124.02 157.88 124.02"/><rect class="cls-4" x="19.35" y="85.05" width="138.66" height="38.97"/><text class="cls-5" transform="translate(37.69 109.8)"><tspan class="cls-6">Y</tspan><tspan x="8.73" y="0">OGA STUDIO</tspan></text><text class="cls-7" transform="translate(51.41 30) scale(0.69 1)">since 2000</text></svg>